<?xml version="1.0" encoding="UTF-8" standalone="no"?>
<!-- Created with Inkscape (http://www.inkscape.org/) -->

<svg
   xmlns:dc="http://purl.org/dc/elements/1.1/"
   xmlns:cc="http://creativecommons.org/ns#"
   xmlns:rdf="http://www.w3.org/1999/02/22-rdf-syntax-ns#"
   xmlns:svg="http://www.w3.org/2000/svg"
   xmlns="http://www.w3.org/2000/svg"
   xmlns:sodipodi="http://sodipodi.sourceforge.net/DTD/sodipodi-0.dtd"
   xmlns:inkscape="http://www.inkscape.org/namespaces/inkscape"
   width="210mm"
   height="297mm"
   viewBox="0 0 210 297"
   version="1.1"
   id="svg4491"
   inkscape:version="0.91 r"
   sodipodi:docname="case.svg">
  <defs
     id="defs4485" />
  <sodipodi:namedview
     id="base"
     pagecolor="#ffffff"
     bordercolor="#666666"
     borderopacity="1.0"
     inkscape:pageopacity="0.0"
     inkscape:pageshadow="2"
     inkscape:zoom="1.7111432"
     inkscape:cx="113.22902"
     inkscape:cy="829.65646"
     inkscape:document-units="mm"
     inkscape:current-layer="layer1"
     showgrid="false"
     inkscape:window-width="1920"
     inkscape:window-height="1056"
     inkscape:window-x="0"
     inkscape:window-y="24"
     inkscape:window-maximized="1" />
  <metadata
     id="metadata4488">
    <rdf:RDF>
      <cc:Work
         rdf:about="">
        <dc:format>image/svg+xml</dc:format>
        <dc:type
           rdf:resource="http://purl.org/dc/dcmitype/StillImage" />
        <dc:title></dc:title>
      </cc:Work>
    </rdf:RDF>
  </metadata>
  <g
     inkscape:label="Layer 1"
     inkscape:groupmode="layer"
     id="layer1">
    <path
       style="fill:none;fill-rule:evenodd;stroke:#000000;stroke-width:0.26458332px;stroke-linecap:butt;stroke-linejoin:miter;stroke-opacity:1"
       d="m 5.60053,1.044424 a 4.9200969,4.9200969 0 0 0 -4.920113,4.920113 4.9200969,4.9200969 0 0 0 4.920113,4.920114 4.9200969,4.9200969 0 0 0 0.87023,-0.07906 v 56.885932 a 4.9200969,4.9200969 0 0 0 -0.87023,-0.08217 4.9200969,4.9200969 0 0 0 -4.920113,4.920115 4.9200969,4.9200969 0 0 0 4.920113,4.920113 4.9200969,4.9200969 0 0 0 4.920112,-4.920113 4.9200969,4.9200969 0 0 0 -0.163814,-1.247986 h 56.966545 a 4.9200969,4.9200969 0 0 0 -0.16691,1.247986 4.9200969,4.9200969 0 0 0 4.92011,4.920113 4.9200969,4.9200969 0 0 0 4.92011,-4.920113 4.9200969,4.9200969 0 0 0 -4.92011,-4.920115 4.9200969,4.9200969 0 0 0 -0.87075,0.07958 V 10.803001 a 4.9200969,4.9200969 0 0 0 0.87075,0.08165 4.9200969,4.9200969 0 0 0 4.92011,-4.920114 4.9200969,4.9200969 0 0 0 -4.92011,-4.920113 4.9200969,4.9200969 0 0 0 -4.92011,4.920113 4.9200969,4.9200969 0 0 0 0.0403,0.58136 H 10.482402 A 4.9200969,4.9200969 0 0 0 10.520642,5.964537 4.9200969,4.9200969 0 0 0 5.60053,1.044424 Z"
       id="rect5038"
       inkscape:connector-curvature="0" />
    <path
       inkscape:connector-curvature="0"
       id="rect5036"
       d="M 10.838552,10.913619 H 66.838553 V 66.91362 H 10.838552 Z"
       style="fill:none;fill-rule:evenodd;stroke:#000000;stroke-width:0.26458332px;stroke-linecap:butt;stroke-linejoin:miter;stroke-opacity:1" />
    <path
       style="fill:none;fill-rule:evenodd;stroke:#000000;stroke-width:0.26458332px;stroke-linecap:butt;stroke-linejoin:miter;stroke-opacity:1"
       d="M 7.168275,5.964641 A 1.5677084,1.5677084 0 0 1 5.600565,7.532349 1.5677084,1.5677084 0 0 1 4.032858,5.964641 1.5677084,1.5677084 0 0 1 5.600565,4.396933 1.5677084,1.5677084 0 0 1 7.168275,5.964641 Z"
       id="path5044-2-3"
       inkscape:connector-curvature="0" />
    <path
       style="fill:none;fill-rule:evenodd;stroke:#000000;stroke-width:0.26458332px;stroke-linecap:butt;stroke-linejoin:miter;stroke-opacity:1"
       d="m 73.644243,5.964641 a 1.5677084,1.5677084 0 0 1 -1.56771,1.567708 1.5677084,1.5677084 0 0 1 -1.56771,-1.567708 1.5677084,1.5677084 0 0 1 1.56771,-1.567708 1.5677084,1.5677084 0 0 1 1.56771,1.567708 z"
       id="path5044-2-3-7"
       inkscape:connector-curvature="0" />
    <path
       style="fill:none;fill-rule:evenodd;stroke:#000000;stroke-width:0.26458332px;stroke-linecap:butt;stroke-linejoin:miter;stroke-opacity:1"
       d="m 7.168275,72.529364 a 1.5677084,1.5677084 0 0 1 -1.56771,1.567707 1.5677084,1.5677084 0 0 1 -1.567707,-1.567707 1.5677084,1.5677084 0 0 1 1.567707,-1.567709 1.5677084,1.5677084 0 0 1 1.56771,1.567709 z"
       id="path5044-2-3-3"
       inkscape:connector-curvature="0" />
    <path
       style="fill:none;fill-rule:evenodd;stroke:#000000;stroke-width:0.26458332px;stroke-linecap:butt;stroke-linejoin:miter;stroke-opacity:1"
       d="m 73.644243,72.529364 a 1.5677084,1.5677084 0 0 1 -1.56771,1.567707 1.5677084,1.5677084 0 0 1 -1.56771,-1.567707 1.5677084,1.5677084 0 0 1 1.56771,-1.567709 1.5677084,1.5677084 0 0 1 1.56771,1.567709 z"
       id="path5044-2-3-7-8"
       inkscape:connector-curvature="0" />
  </g>
</svg>
