<?xml version="1.0" encoding="UTF-8" standalone="no"?>
<svg
   xmlns:dc="http://purl.org/dc/elements/1.1/"
   xmlns:cc="http://creativecommons.org/ns#"
   xmlns:rdf="http://www.w3.org/1999/02/22-rdf-syntax-ns#"
   xmlns:svg="http://www.w3.org/2000/svg"
   xmlns="http://www.w3.org/2000/svg"
   xmlns:sodipodi="http://sodipodi.sourceforge.net/DTD/sodipodi-0.dtd"
   xmlns:inkscape="http://www.inkscape.org/namespaces/inkscape"
   version="1.1"
   width="720.7mm"
   height="204.7mm"
   viewBox=" 0 0 2553.663517 725.3155569999999"
   id="svg4598"
   sodipodi:docname="caseplans.svg"
   inkscape:version="0.92.1 r15371">
  <metadata
     id="metadata4604">
    <rdf:RDF>
      <cc:Work
         rdf:about="">
        <dc:format>image/svg+xml</dc:format>
        <dc:type
           rdf:resource="http://purl.org/dc/dcmitype/StillImage" />
      </cc:Work>
    </rdf:RDF>
  </metadata>
  <defs
     id="defs4602" />
  <sodipodi:namedview
     pagecolor="#ffffff"
     bordercolor="#666666"
     borderopacity="1"
     objecttolerance="10"
     gridtolerance="10"
     guidetolerance="10"
     inkscape:pageopacity="0"
     inkscape:pageshadow="2"
     inkscape:window-width="1920"
     inkscape:window-height="1029"
     id="namedview4600"
     showgrid="false"
     showguides="false"
     inkscape:zoom="0.75074292"
     inkscape:cx="1449.4305"
     inkscape:cy="563.10716"
     inkscape:window-x="0"
     inkscape:window-y="27"
     inkscape:window-maximized="1"
     inkscape:current-layer="svg4598" />
  <!-- Front-->
  <g
     transform="translate(22.5000185, 22.5000185) "
     id="g4576">
    <polygon
       style="stroke:#000000; fill:none; stroke-width:0.90000074"
       points="0, 0 31.889789999999998, 0 31.889789999999998, 10.62993 63.779579999999996, 10.62993 63.779579999999996, 0 85.03944, 0 85.03944, 10.62993 106.29929999999999, 10.62993 106.29929999999999, 0 127.55915999999999, 0 127.55915999999999, 10.62993 148.81902, 10.62993 148.81902, 0 170.07888, 0 170.07888, 10.62993 191.33873999999997, 10.62993 191.33873999999997, 0 212.59859999999998, 0 212.59859999999998, 10.62993 233.85845999999998, 10.62993 233.85845999999998, 0 255.11831999999998, 0 255.11831999999998, 10.62993 276.37818, 10.62993 276.37818, 0 297.63804, 0 297.63804, 10.62993 318.8979, 10.62993 318.8979, 0 340.15776, 0 340.15776, 10.62993 361.41762, 10.62993 361.41762, 0 382.67748, 0 382.67748, 10.62993 403.93734, 10.62993 403.93734, 0 425.1972, 0 425.1972, 10.62993 446.45706, 10.62993 446.45706, 0 467.71692, 0 467.71692, 10.62993 488.97678, 10.62993 488.97678, 0 510.23664, 0 510.23664, 10.62993 531.4965, 10.62993 531.4965, 0 552.75636, 0 552.75636, 10.62993 574.01622, 10.62993 574.01622, 0 595.27608, 0 595.27608, 10.62993 616.53594, 10.62993 616.53594, 0 637.7958, 0 637.7958, 10.62993 659.05566, 10.62993 659.05566, 0 680.31552, 0 680.31552, 10.62993 701.57538, 10.62993 701.57538, 0 722.83524, 0 722.83524, 10.62993 744.0951, 10.62993 744.0951, 0 765.35496, 0 765.35496, 10.62993 786.61482, 10.62993 786.61482, 0 807.87468, 0 807.87468, 10.62993 829.13454, 10.62993 829.13454, 0 850.3944, 0 850.3944, 10.62993 871.65426, 10.62993 871.65426, 0 892.91412, 0 892.91412, 10.62993 914.17398, 10.62993 914.17398, 0 935.43384, 0 935.43384, 10.62993 956.6937, 10.62993 956.6937, 0 977.95356, 0 977.95356, 10.62993 999.21342, 10.62993 999.21342, 0 1020.47328, 0 1020.47328, 10.62993 1052.36307, 10.62993 1052.36307, 0 1084.25286, 0 1084.25286, 26.574825 1073.62293, 26.574825 1073.62293, 53.14965 1084.25286, 53.14965 1084.25286, 74.40951 1073.62293, 74.40951 1073.62293, 95.66937 1084.25286, 95.66937 1084.25286, 116.92922999999999 1073.62293, 116.92922999999999 1073.62293, 138.18909 1084.25286, 138.18909 1084.25286, 159.44895 1073.62293, 159.44895 1073.62293, 180.70881 1084.25286, 180.70881 1084.25286, 201.96867 1073.62293, 201.96867 1073.62293, 223.22853 1084.25286, 223.22853 1084.25286, 244.48839 1073.62293, 244.48839 1073.62293, 265.74825 1084.25286, 265.74825 1084.25286, 287.00811 1073.62293, 287.00811 1073.62293, 313.582935 1084.25286, 313.582935 1084.25286, 340.15776 1052.36307, 340.15776 1052.36307, 329.52783 1020.47328, 329.52783 1020.47328, 340.15776 999.21342, 340.15776 999.21342, 329.52783 977.95356, 329.52783 977.95356, 340.15776 956.6937, 340.15776 956.6937, 329.52783 935.43384, 329.52783 935.43384, 340.15776 914.17398, 340.15776 914.17398, 329.52783 892.91412, 329.52783 892.91412, 340.15776 871.65426, 340.15776 871.65426, 329.52783 850.3944, 329.52783 850.3944, 340.15776 829.13454, 340.15776 829.13454, 329.52783 807.87468, 329.52783 807.87468, 340.15776 786.61482, 340.15776 786.61482, 329.52783 765.35496, 329.52783 765.35496, 340.15776 744.0951, 340.15776 744.0951, 329.52783 722.83524, 329.52783 722.83524, 340.15776 701.57538, 340.15776 701.57538, 329.52783 680.31552, 329.52783 680.31552, 340.15776 659.05566, 340.15776 659.05566, 329.52783 637.7958, 329.52783 637.7958, 340.15776 616.53594, 340.15776 616.53594, 329.52783 595.27608, 329.52783 595.27608, 340.15776 574.01622, 340.15776 574.01622, 329.52783 552.75636, 329.52783 552.75636, 340.15776 531.4965, 340.15776 531.4965, 329.52783 510.23664, 329.52783 510.23664, 340.15776 488.97678, 340.15776 488.97678, 329.52783 467.71692, 329.52783 467.71692, 340.15776 446.45706, 340.15776 446.45706, 329.52783 425.1972, 329.52783 425.1972, 340.15776 403.93734, 340.15776 403.93734, 329.52783 382.67748, 329.52783 382.67748, 340.15776 361.41762, 340.15776 361.41762, 329.52783 340.15776, 329.52783 340.15776, 340.15776 318.8979, 340.15776 318.8979, 329.52783 297.63804, 329.52783 297.63804, 340.15776 276.37818, 340.15776 276.37818, 329.52783 255.11831999999998, 329.52783 255.11831999999998, 340.15776 233.85845999999998, 340.15776 233.85845999999998, 329.52783 212.59859999999998, 329.52783 212.59859999999998, 340.15776 191.33873999999997, 340.15776 191.33873999999997, 329.52783 170.07888, 329.52783 170.07888, 340.15776 148.81902, 340.15776 148.81902, 329.52783 127.55915999999999, 329.52783 127.55915999999999, 340.15776 106.29929999999999, 340.15776 106.29929999999999, 329.52783 85.03944, 329.52783 85.03944, 340.15776 63.779579999999996, 340.15776 63.779579999999996, 329.52783 31.889789999999998, 329.52783 31.889789999999998, 340.15776 0, 340.15776 0, 313.582935 10.62993, 313.582935 10.62993, 287.00811 0, 287.00811 0, 265.74825 10.62993, 265.74825 10.62993, 244.48839 0, 244.48839 0, 223.22853 10.62993, 223.22853 10.62993, 201.96867 0, 201.96867 0, 180.70881 10.62993, 180.70881 10.62993, 159.44895 0, 159.44895 0, 138.18909 10.62993, 138.18909 10.62993, 116.92922999999999 0, 116.92922999999999 0, 95.66937 10.62993, 95.66937 10.62993, 74.40951 0, 74.40951 0, 53.14965 10.62993, 53.14965 10.62993, 26.574825 0, 26.574825 "
       id="polygon4574" />
  </g>
  <!-- Back-->
  <g
     transform="translate(1106.7528785000002, 22.5000185) "
     id="g4580">
    <polygon
       style="stroke:#000000; fill:none; stroke-width:0.90000074"
       points="0, 0 31.889789999999998, 0 31.889789999999998, 10.62993 63.779579999999996, 10.62993 63.779579999999996, 0 85.03944, 0 85.03944, 10.62993 106.29929999999999, 10.62993 106.29929999999999, 0 127.55915999999999, 0 127.55915999999999, 10.62993 148.81902, 10.62993 148.81902, 0 170.07888, 0 170.07888, 10.62993 191.33873999999997, 10.62993 191.33873999999997, 0 212.59859999999998, 0 212.59859999999998, 10.62993 233.85845999999998, 10.62993 233.85845999999998, 0 255.11831999999998, 0 255.11831999999998, 10.62993 276.37818, 10.62993 276.37818, 0 297.63804, 0 297.63804, 10.62993 318.8979, 10.62993 318.8979, 0 340.15776, 0 340.15776, 10.62993 361.41762, 10.62993 361.41762, 0 382.67748, 0 382.67748, 10.62993 403.93734, 10.62993 403.93734, 0 425.1972, 0 425.1972, 10.62993 446.45706, 10.62993 446.45706, 0 467.71692, 0 467.71692, 10.62993 488.97678, 10.62993 488.97678, 0 510.23664, 0 510.23664, 10.62993 531.4965, 10.62993 531.4965, 0 552.75636, 0 552.75636, 10.62993 574.01622, 10.62993 574.01622, 0 595.27608, 0 595.27608, 10.62993 616.53594, 10.62993 616.53594, 0 637.7958, 0 637.7958, 10.62993 659.05566, 10.62993 659.05566, 0 680.31552, 0 680.31552, 10.62993 701.57538, 10.62993 701.57538, 0 722.83524, 0 722.83524, 10.62993 744.0951, 10.62993 744.0951, 0 765.35496, 0 765.35496, 10.62993 786.61482, 10.62993 786.61482, 0 807.87468, 0 807.87468, 10.62993 829.13454, 10.62993 829.13454, 0 850.3944, 0 850.3944, 10.62993 871.65426, 10.62993 871.65426, 0 892.91412, 0 892.91412, 10.62993 914.17398, 10.62993 914.17398, 0 935.43384, 0 935.43384, 10.62993 956.6937, 10.62993 956.6937, 0 977.95356, 0 977.95356, 10.62993 999.21342, 10.62993 999.21342, 0 1020.47328, 0 1020.47328, 10.62993 1052.36307, 10.62993 1052.36307, 0 1084.25286, 0 1084.25286, 26.574825 1073.62293, 26.574825 1073.62293, 53.14965 1084.25286, 53.14965 1084.25286, 74.40951 1073.62293, 74.40951 1073.62293, 95.66937 1084.25286, 95.66937 1084.25286, 116.92922999999999 1073.62293, 116.92922999999999 1073.62293, 138.18909 1084.25286, 138.18909 1084.25286, 159.44895 1073.62293, 159.44895 1073.62293, 180.70881 1084.25286, 180.70881 1084.25286, 201.96867 1073.62293, 201.96867 1073.62293, 223.22853 1084.25286, 223.22853 1084.25286, 244.48839 1073.62293, 244.48839 1073.62293, 265.74825 1084.25286, 265.74825 1084.25286, 287.00811 1073.62293, 287.00811 1073.62293, 313.582935 1084.25286, 313.582935 1084.25286, 340.15776 1052.36307, 340.15776 1052.36307, 329.52783 1020.47328, 329.52783 1020.47328, 340.15776 999.21342, 340.15776 999.21342, 329.52783 977.95356, 329.52783 977.95356, 340.15776 956.6937, 340.15776 956.6937, 329.52783 935.43384, 329.52783 935.43384, 340.15776 914.17398, 340.15776 914.17398, 329.52783 892.91412, 329.52783 892.91412, 340.15776 871.65426, 340.15776 871.65426, 329.52783 850.3944, 329.52783 850.3944, 340.15776 829.13454, 340.15776 829.13454, 329.52783 807.87468, 329.52783 807.87468, 340.15776 786.61482, 340.15776 786.61482, 329.52783 765.35496, 329.52783 765.35496, 340.15776 744.0951, 340.15776 744.0951, 329.52783 722.83524, 329.52783 722.83524, 340.15776 701.57538, 340.15776 701.57538, 329.52783 680.31552, 329.52783 680.31552, 340.15776 659.05566, 340.15776 659.05566, 329.52783 637.7958, 329.52783 637.7958, 340.15776 616.53594, 340.15776 616.53594, 329.52783 595.27608, 329.52783 595.27608, 340.15776 574.01622, 340.15776 574.01622, 329.52783 552.75636, 329.52783 552.75636, 340.15776 531.4965, 340.15776 531.4965, 329.52783 510.23664, 329.52783 510.23664, 340.15776 488.97678, 340.15776 488.97678, 329.52783 467.71692, 329.52783 467.71692, 340.15776 446.45706, 340.15776 446.45706, 329.52783 425.1972, 329.52783 425.1972, 340.15776 403.93734, 340.15776 403.93734, 329.52783 382.67748, 329.52783 382.67748, 340.15776 361.41762, 340.15776 361.41762, 329.52783 340.15776, 329.52783 340.15776, 340.15776 318.8979, 340.15776 318.8979, 329.52783 297.63804, 329.52783 297.63804, 340.15776 276.37818, 340.15776 276.37818, 329.52783 255.11831999999998, 329.52783 255.11831999999998, 340.15776 233.85845999999998, 340.15776 233.85845999999998, 329.52783 212.59859999999998, 329.52783 212.59859999999998, 340.15776 191.33873999999997, 340.15776 191.33873999999997, 329.52783 170.07888, 329.52783 170.07888, 340.15776 148.81902, 340.15776 148.81902, 329.52783 127.55915999999999, 329.52783 127.55915999999999, 340.15776 106.29929999999999, 340.15776 106.29929999999999, 329.52783 85.03944, 329.52783 85.03944, 340.15776 63.779579999999996, 340.15776 63.779579999999996, 329.52783 31.889789999999998, 329.52783 31.889789999999998, 340.15776 0, 340.15776 0, 313.582935 10.62993, 313.582935 10.62993, 287.00811 0, 287.00811 0, 265.74825 10.62993, 265.74825 10.62993, 244.48839 0, 244.48839 0, 223.22853 10.62993, 223.22853 10.62993, 201.96867 0, 201.96867 0, 180.70881 10.62993, 180.70881 10.62993, 159.44895 0, 159.44895 0, 138.18909 10.62993, 138.18909 10.62993, 116.92922999999999 0, 116.92922999999999 0, 95.66937 10.62993, 95.66937 10.62993, 74.40951 0, 74.40951 0, 53.14965 10.62993, 53.14965 10.62993, 26.574825 0, 26.574825 "
       id="polygon4578" />
  </g>
  <!-- Left-->
  <g
     transform="translate(2191.0057385, 22.5000185) "
     id="g4584">
    <polygon
       style="stroke:#000000; fill:none; stroke-width:0.90000074"
       points="10.62993, 0 26.574825, 0 26.574825, 10.62993 53.14965, 10.62993 53.14965, 0 74.40951, 0 74.40951, 10.62993 95.66937, 10.62993 95.66937, 0 116.92922999999999, 0 116.92922999999999, 10.62993 138.18909, 10.62993 138.18909, 0 159.44895, 0 159.44895, 10.62993 180.70881, 10.62993 180.70881, 0 201.96867, 0 201.96867, 10.62993 223.22853, 10.62993 223.22853, 0 244.48839, 0 244.48839, 10.62993 265.74825, 10.62993 265.74825, 0 287.00811, 0 287.00811, 10.62993 313.582935, 10.62993 313.582935, 0 329.52783, 0 329.52783, 26.574825 340.15776, 26.574825 340.15776, 53.14965 329.52783, 53.14965 329.52783, 74.40951 340.15776, 74.40951 340.15776, 95.66937 329.52783, 95.66937 329.52783, 116.92922999999999 340.15776, 116.92922999999999 340.15776, 138.18909 329.52783, 138.18909 329.52783, 159.44895 340.15776, 159.44895 340.15776, 180.70881 329.52783, 180.70881 329.52783, 201.96867 340.15776, 201.96867 340.15776, 223.22853 329.52783, 223.22853 329.52783, 244.48839 340.15776, 244.48839 340.15776, 265.74825 329.52783, 265.74825 329.52783, 287.00811 340.15776, 287.00811 340.15776, 313.582935 329.52783, 313.582935 329.52783, 340.15776 313.582935, 340.15776 313.582935, 329.52783 287.00811, 329.52783 287.00811, 340.15776 265.74825, 340.15776 265.74825, 329.52783 244.48839, 329.52783 244.48839, 340.15776 223.22853, 340.15776 223.22853, 329.52783 201.96867, 329.52783 201.96867, 340.15776 180.70881, 340.15776 180.70881, 329.52783 159.44895, 329.52783 159.44895, 340.15776 138.18909, 340.15776 138.18909, 329.52783 116.92922999999999, 329.52783 116.92922999999999, 340.15776 95.66937, 340.15776 95.66937, 329.52783 74.40951, 329.52783 74.40951, 340.15776 53.14965, 340.15776 53.14965, 329.52783 26.574825, 329.52783 26.574825, 340.15776 10.62993, 340.15776 10.62993, 313.582935 0, 313.582935 0, 287.00811 10.62993, 287.00811 10.62993, 265.74825 0, 265.74825 0, 244.48839 10.62993, 244.48839 10.62993, 223.22853 0, 223.22853 0, 201.96867 10.62993, 201.96867 10.62993, 180.70881 0, 180.70881 0, 159.44895 10.62993, 159.44895 10.62993, 138.18909 0, 138.18909 0, 116.92922999999999 10.62993, 116.92922999999999 10.62993, 95.66937 0, 95.66937 0, 74.40951 10.62993, 74.40951 10.62993, 53.14965 0, 53.14965 0, 26.574825 10.62993, 26.574825 "
       id="polygon4582" />
  </g>
  <!-- Right-->
  <g
     transform="translate(2191.0057385, 362.65777849999995) "
     id="g4588">
    <polygon
       style="stroke:#000000; fill:none; stroke-width:0.90000074"
       points="10.62993, 0 26.574825, 0 26.574825, 10.62993 53.14965, 10.62993 53.14965, 0 74.40951, 0 74.40951, 10.62993 95.66937, 10.62993 95.66937, 0 116.92922999999999, 0 116.92922999999999, 10.62993 138.18909, 10.62993 138.18909, 0 159.44895, 0 159.44895, 10.62993 180.70881, 10.62993 180.70881, 0 201.96867, 0 201.96867, 10.62993 223.22853, 10.62993 223.22853, 0 244.48839, 0 244.48839, 10.62993 265.74825, 10.62993 265.74825, 0 287.00811, 0 287.00811, 10.62993 313.582935, 10.62993 313.582935, 0 329.52783, 0 329.52783, 26.574825 340.15776, 26.574825 340.15776, 53.14965 329.52783, 53.14965 329.52783, 74.40951 340.15776, 74.40951 340.15776, 95.66937 329.52783, 95.66937 329.52783, 116.92922999999999 340.15776, 116.92922999999999 340.15776, 138.18909 329.52783, 138.18909 329.52783, 159.44895 340.15776, 159.44895 340.15776, 180.70881 329.52783, 180.70881 329.52783, 201.96867 340.15776, 201.96867 340.15776, 223.22853 329.52783, 223.22853 329.52783, 244.48839 340.15776, 244.48839 340.15776, 265.74825 329.52783, 265.74825 329.52783, 287.00811 340.15776, 287.00811 340.15776, 313.582935 329.52783, 313.582935 329.52783, 340.15776 313.582935, 340.15776 313.582935, 329.52783 287.00811, 329.52783 287.00811, 340.15776 265.74825, 340.15776 265.74825, 329.52783 244.48839, 329.52783 244.48839, 340.15776 223.22853, 340.15776 223.22853, 329.52783 201.96867, 329.52783 201.96867, 340.15776 180.70881, 340.15776 180.70881, 329.52783 159.44895, 329.52783 159.44895, 340.15776 138.18909, 340.15776 138.18909, 329.52783 116.92922999999999, 329.52783 116.92922999999999, 340.15776 95.66937, 340.15776 95.66937, 329.52783 74.40951, 329.52783 74.40951, 340.15776 53.14965, 340.15776 53.14965, 329.52783 26.574825, 329.52783 26.574825, 340.15776 10.62993, 340.15776 10.62993, 313.582935 0, 313.582935 0, 287.00811 10.62993, 287.00811 10.62993, 265.74825 0, 265.74825 0, 244.48839 10.62993, 244.48839 10.62993, 223.22853 0, 223.22853 0, 201.96867 10.62993, 201.96867 10.62993, 180.70881 0, 180.70881 0, 159.44895 10.62993, 159.44895 10.62993, 138.18909 0, 138.18909 0, 116.92922999999999 10.62993, 116.92922999999999 10.62993, 95.66937 0, 95.66937 0, 74.40951 10.62993, 74.40951 10.62993, 53.14965 0, 53.14965 0, 26.574825 10.62993, 26.574825 "
       id="polygon4586" />
  </g>
  <!-- Top-->
  <g
     transform="translate(22.5000185, 362.65777849999995) "
     id="g4592">
    <polygon
       style="stroke:#000000; fill:none; stroke-width:0.90000074"
       points="10.62993, 10.62993 31.889789999999998, 10.62993 31.889789999999998, 0 63.779579999999996, 0 63.779579999999996, 10.62993 85.03944, 10.62993 85.03944, 0 106.29929999999999, 0 106.29929999999999, 10.62993 127.55915999999999, 10.62993 127.55915999999999, 0 148.81902, 0 148.81902, 10.62993 170.07888, 10.62993 170.07888, 0 191.33873999999997, 0 191.33873999999997, 10.62993 212.59859999999998, 10.62993 212.59859999999998, 0 233.85845999999998, 0 233.85845999999998, 10.62993 255.11831999999998, 10.62993 255.11831999999998, 0 276.37818, 0 276.37818, 10.62993 297.63804, 10.62993 297.63804, 0 318.8979, 0 318.8979, 10.62993 340.15776, 10.62993 340.15776, 0 361.41762, 0 361.41762, 10.62993 382.67748, 10.62993 382.67748, 0 403.93734, 0 403.93734, 10.62993 425.1972, 10.62993 425.1972, 0 446.45706, 0 446.45706, 10.62993 467.71692, 10.62993 467.71692, 0 488.97678, 0 488.97678, 10.62993 510.23664, 10.62993 510.23664, 0 531.4965, 0 531.4965, 10.62993 552.75636, 10.62993 552.75636, 0 574.01622, 0 574.01622, 10.62993 595.27608, 10.62993 595.27608, 0 616.53594, 0 616.53594, 10.62993 637.7958, 10.62993 637.7958, 0 659.05566, 0 659.05566, 10.62993 680.31552, 10.62993 680.31552, 0 701.57538, 0 701.57538, 10.62993 722.83524, 10.62993 722.83524, 0 744.0951, 0 744.0951, 10.62993 765.35496, 10.62993 765.35496, 0 786.61482, 0 786.61482, 10.62993 807.87468, 10.62993 807.87468, 0 829.13454, 0 829.13454, 10.62993 850.3944, 10.62993 850.3944, 0 871.65426, 0 871.65426, 10.62993 892.91412, 10.62993 892.91412, 0 914.17398, 0 914.17398, 10.62993 935.43384, 10.62993 935.43384, 0 956.6937, 0 956.6937, 10.62993 977.95356, 10.62993 977.95356, 0 999.21342, 0 999.21342, 10.62993 1020.47328, 10.62993 1020.47328, 0 1052.36307, 0 1052.36307, 10.62993 1073.62293, 10.62993 1073.62293, 26.574825 1084.25286, 26.574825 1084.25286, 53.14965 1073.62293, 53.14965 1073.62293, 74.40951 1084.25286, 74.40951 1084.25286, 95.66937 1073.62293, 95.66937 1073.62293, 116.92922999999999 1084.25286, 116.92922999999999 1084.25286, 138.18909 1073.62293, 138.18909 1073.62293, 159.44895 1084.25286, 159.44895 1084.25286, 180.70881 1073.62293, 180.70881 1073.62293, 201.96867 1084.25286, 201.96867 1084.25286, 223.22853 1073.62293, 223.22853 1073.62293, 244.48839 1084.25286, 244.48839 1084.25286, 265.74825 1073.62293, 265.74825 1073.62293, 287.00811 1084.25286, 287.00811 1084.25286, 313.582935 1073.62293, 313.582935 1073.62293, 329.52783 1052.36307, 329.52783 1052.36307, 340.15776 1020.47328, 340.15776 1020.47328, 329.52783 999.21342, 329.52783 999.21342, 340.15776 977.95356, 340.15776 977.95356, 329.52783 956.6937, 329.52783 956.6937, 340.15776 935.43384, 340.15776 935.43384, 329.52783 914.17398, 329.52783 914.17398, 340.15776 892.91412, 340.15776 892.91412, 329.52783 871.65426, 329.52783 871.65426, 340.15776 850.3944, 340.15776 850.3944, 329.52783 829.13454, 329.52783 829.13454, 340.15776 807.87468, 340.15776 807.87468, 329.52783 786.61482, 329.52783 786.61482, 340.15776 765.35496, 340.15776 765.35496, 329.52783 744.0951, 329.52783 744.0951, 340.15776 722.83524, 340.15776 722.83524, 329.52783 701.57538, 329.52783 701.57538, 340.15776 680.31552, 340.15776 680.31552, 329.52783 659.05566, 329.52783 659.05566, 340.15776 637.7958, 340.15776 637.7958, 329.52783 616.53594, 329.52783 616.53594, 340.15776 595.27608, 340.15776 595.27608, 329.52783 574.01622, 329.52783 574.01622, 340.15776 552.75636, 340.15776 552.75636, 329.52783 531.4965, 329.52783 531.4965, 340.15776 510.23664, 340.15776 510.23664, 329.52783 488.97678, 329.52783 488.97678, 340.15776 467.71692, 340.15776 467.71692, 329.52783 446.45706, 329.52783 446.45706, 340.15776 425.1972, 340.15776 425.1972, 329.52783 403.93734, 329.52783 403.93734, 340.15776 382.67748, 340.15776 382.67748, 329.52783 361.41762, 329.52783 361.41762, 340.15776 340.15776, 340.15776 340.15776, 329.52783 318.8979, 329.52783 318.8979, 340.15776 297.63804, 340.15776 297.63804, 329.52783 276.37818, 329.52783 276.37818, 340.15776 255.11831999999998, 340.15776 255.11831999999998, 329.52783 233.85845999999998, 329.52783 233.85845999999998, 340.15776 212.59859999999998, 340.15776 212.59859999999998, 329.52783 191.33873999999997, 329.52783 191.33873999999997, 340.15776 170.07888, 340.15776 170.07888, 329.52783 148.81902, 329.52783 148.81902, 340.15776 127.55915999999999, 340.15776 127.55915999999999, 329.52783 106.29929999999999, 329.52783 106.29929999999999, 340.15776 85.03944, 340.15776 85.03944, 329.52783 63.779579999999996, 329.52783 63.779579999999996, 340.15776 31.889789999999998, 340.15776 31.889789999999998, 329.52783 10.62993, 329.52783 10.62993, 313.582935 0, 313.582935 0, 287.00811 10.62993, 287.00811 10.62993, 265.74825 0, 265.74825 0, 244.48839 10.62993, 244.48839 10.62993, 223.22853 0, 223.22853 0, 201.96867 10.62993, 201.96867 10.62993, 180.70881 0, 180.70881 0, 159.44895 10.62993, 159.44895 10.62993, 138.18909 0, 138.18909 0, 116.92922999999999 10.62993, 116.92922999999999 10.62993, 95.66937 0, 95.66937 0, 74.40951 10.62993, 74.40951 10.62993, 53.14965 0, 53.14965 0, 26.574825 10.62993, 26.574825 "
       id="polygon4590" />
  </g>
  <!-- Bottom-->
  <g
     transform="translate(1106.7528785000002, 362.65777849999995) "
     id="g4596">
    <polygon
       style="stroke:#000000; fill:none; stroke-width:0.90000074"
       points="10.62993, 10.62993 31.889789999999998, 10.62993 31.889789999999998, 0 63.779579999999996, 0 63.779579999999996, 10.62993 85.03944, 10.62993 85.03944, 0 106.29929999999999, 0 106.29929999999999, 10.62993 127.55915999999999, 10.62993 127.55915999999999, 0 148.81902, 0 148.81902, 10.62993 170.07888, 10.62993 170.07888, 0 191.33873999999997, 0 191.33873999999997, 10.62993 212.59859999999998, 10.62993 212.59859999999998, 0 233.85845999999998, 0 233.85845999999998, 10.62993 255.11831999999998, 10.62993 255.11831999999998, 0 276.37818, 0 276.37818, 10.62993 297.63804, 10.62993 297.63804, 0 318.8979, 0 318.8979, 10.62993 340.15776, 10.62993 340.15776, 0 361.41762, 0 361.41762, 10.62993 382.67748, 10.62993 382.67748, 0 403.93734, 0 403.93734, 10.62993 425.1972, 10.62993 425.1972, 0 446.45706, 0 446.45706, 10.62993 467.71692, 10.62993 467.71692, 0 488.97678, 0 488.97678, 10.62993 510.23664, 10.62993 510.23664, 0 531.4965, 0 531.4965, 10.62993 552.75636, 10.62993 552.75636, 0 574.01622, 0 574.01622, 10.62993 595.27608, 10.62993 595.27608, 0 616.53594, 0 616.53594, 10.62993 637.7958, 10.62993 637.7958, 0 659.05566, 0 659.05566, 10.62993 680.31552, 10.62993 680.31552, 0 701.57538, 0 701.57538, 10.62993 722.83524, 10.62993 722.83524, 0 744.0951, 0 744.0951, 10.62993 765.35496, 10.62993 765.35496, 0 786.61482, 0 786.61482, 10.62993 807.87468, 10.62993 807.87468, 0 829.13454, 0 829.13454, 10.62993 850.3944, 10.62993 850.3944, 0 871.65426, 0 871.65426, 10.62993 892.91412, 10.62993 892.91412, 0 914.17398, 0 914.17398, 10.62993 935.43384, 10.62993 935.43384, 0 956.6937, 0 956.6937, 10.62993 977.95356, 10.62993 977.95356, 0 999.21342, 0 999.21342, 10.62993 1020.47328, 10.62993 1020.47328, 0 1052.36307, 0 1052.36307, 10.62993 1073.62293, 10.62993 1073.62293, 26.574825 1084.25286, 26.574825 1084.25286, 53.14965 1073.62293, 53.14965 1073.62293, 74.40951 1084.25286, 74.40951 1084.25286, 95.66937 1073.62293, 95.66937 1073.62293, 116.92922999999999 1084.25286, 116.92922999999999 1084.25286, 138.18909 1073.62293, 138.18909 1073.62293, 159.44895 1084.25286, 159.44895 1084.25286, 180.70881 1073.62293, 180.70881 1073.62293, 201.96867 1084.25286, 201.96867 1084.25286, 223.22853 1073.62293, 223.22853 1073.62293, 244.48839 1084.25286, 244.48839 1084.25286, 265.74825 1073.62293, 265.74825 1073.62293, 287.00811 1084.25286, 287.00811 1084.25286, 313.582935 1073.62293, 313.582935 1073.62293, 329.52783 1052.36307, 329.52783 1052.36307, 340.15776 1020.47328, 340.15776 1020.47328, 329.52783 999.21342, 329.52783 999.21342, 340.15776 977.95356, 340.15776 977.95356, 329.52783 956.6937, 329.52783 956.6937, 340.15776 935.43384, 340.15776 935.43384, 329.52783 914.17398, 329.52783 914.17398, 340.15776 892.91412, 340.15776 892.91412, 329.52783 871.65426, 329.52783 871.65426, 340.15776 850.3944, 340.15776 850.3944, 329.52783 829.13454, 329.52783 829.13454, 340.15776 807.87468, 340.15776 807.87468, 329.52783 786.61482, 329.52783 786.61482, 340.15776 765.35496, 340.15776 765.35496, 329.52783 744.0951, 329.52783 744.0951, 340.15776 722.83524, 340.15776 722.83524, 329.52783 701.57538, 329.52783 701.57538, 340.15776 680.31552, 340.15776 680.31552, 329.52783 659.05566, 329.52783 659.05566, 340.15776 637.7958, 340.15776 637.7958, 329.52783 616.53594, 329.52783 616.53594, 340.15776 595.27608, 340.15776 595.27608, 329.52783 574.01622, 329.52783 574.01622, 340.15776 552.75636, 340.15776 552.75636, 329.52783 531.4965, 329.52783 531.4965, 340.15776 510.23664, 340.15776 510.23664, 329.52783 488.97678, 329.52783 488.97678, 340.15776 467.71692, 340.15776 467.71692, 329.52783 446.45706, 329.52783 446.45706, 340.15776 425.1972, 340.15776 425.1972, 329.52783 403.93734, 329.52783 403.93734, 340.15776 382.67748, 340.15776 382.67748, 329.52783 361.41762, 329.52783 361.41762, 340.15776 340.15776, 340.15776 340.15776, 329.52783 318.8979, 329.52783 318.8979, 340.15776 297.63804, 340.15776 297.63804, 329.52783 276.37818, 329.52783 276.37818, 340.15776 255.11831999999998, 340.15776 255.11831999999998, 329.52783 233.85845999999998, 329.52783 233.85845999999998, 340.15776 212.59859999999998, 340.15776 212.59859999999998, 329.52783 191.33873999999997, 329.52783 191.33873999999997, 340.15776 170.07888, 340.15776 170.07888, 329.52783 148.81902, 329.52783 148.81902, 340.15776 127.55915999999999, 340.15776 127.55915999999999, 329.52783 106.29929999999999, 329.52783 106.29929999999999, 340.15776 85.03944, 340.15776 85.03944, 329.52783 63.779579999999996, 329.52783 63.779579999999996, 340.15776 31.889789999999998, 340.15776 31.889789999999998, 329.52783 10.62993, 329.52783 10.62993, 313.582935 0, 313.582935 0, 287.00811 10.62993, 287.00811 10.62993, 265.74825 0, 265.74825 0, 244.48839 10.62993, 244.48839 10.62993, 223.22853 0, 223.22853 0, 201.96867 10.62993, 201.96867 10.62993, 180.70881 0, 180.70881 0, 159.44895 10.62993, 159.44895 10.62993, 138.18909 0, 138.18909 0, 116.92922999999999 10.62993, 116.92922999999999 10.62993, 95.66937 0, 95.66937 0, 74.40951 10.62993, 74.40951 10.62993, 53.14965 0, 53.14965 0, 26.574825 10.62993, 26.574825 "
       id="polygon4594" />
  </g>
  <ellipse
     style="fill:none;fill-opacity:1;stroke:#000000;stroke-width:0.60467315;stroke-miterlimit:4;stroke-dasharray:none;stroke-opacity:1"
     id="path4606"
     cx="2361.0847"
     cy="192.5789"
     rx="43.989037"
     ry="43.98904" />
  <ellipse
     style="fill:none;fill-opacity:1;stroke:#000000;stroke-width:0.60467321;stroke-miterlimit:4;stroke-dasharray:none;stroke-opacity:1"
     id="path4606-3"
     cx="2361.0847"
     cy="532.73663"
     rx="43.989037"
     ry="43.98904" />
  <rect
     style="fill:none;fill-opacity:1;stroke:#000000;stroke-width:0.70866203;stroke-miterlimit:4;stroke-dasharray:none;stroke-opacity:1"
     id="rect4632"
     width="999.56683"
     height="173.06987"
     x="1150.9709"
     y="62.918961"
     rx="14.668419"
     ry="16.029484" />
  <g
     id="g4685"
     transform="translate(4.0825556)">
    <circle
       r="8.6025705"
       cy="285.99542"
       cx="1325.7943"
       id="path4634"
       style="fill:none;fill-opacity:1;stroke:#000000;stroke-width:0.51140893;stroke-miterlimit:4;stroke-dasharray:none;stroke-opacity:1" />
    <circle
       r="8.6025705"
       cy="286.65009"
       cx="1538.8075"
       id="path4634-6"
       style="fill:none;fill-opacity:1;stroke:#000000;stroke-width:0.51140898;stroke-miterlimit:4;stroke-dasharray:none;stroke-opacity:1" />
    <circle
       r="8.6025705"
       cy="285.76154"
       cx="1751.6719"
       id="path4634-6-7"
       style="fill:none;fill-opacity:1;stroke:#000000;stroke-width:0.51140898;stroke-miterlimit:4;stroke-dasharray:none;stroke-opacity:1" />
    <circle
       r="8.6025705"
       cy="286.65012"
       cx="1963.7992"
       id="path4634-6-7-5"
       style="fill:none;fill-opacity:1;stroke:#000000;stroke-width:0.51140898;stroke-miterlimit:4;stroke-dasharray:none;stroke-opacity:1" />
  </g>
</svg>
